<svg xmlns="http://www.w3.org/2000/svg" viewBox="0 0 24 24" id="blender"><path d="m9.203 18.737-.005-.005zM13.375 15.112h-.001zM23.925 12.839l.001.02.003.018-.004-.038zm-1.028-2.771.015.026.002.003-.017-.029z"></path><path fill="#1976D2" d="M15.752 10.418h-.025c-.835 0-1.599.298-2.188.79-.592.5-.984 1.206-1.03 2.006h.001c-.045.822.285 1.584.865 2.151.61.582 1.435.939 2.344.939h.067c.909 0 1.734-.357 2.341-.938.58-.567.91-1.33.865-2.153-.045-.799-.436-1.505-1.028-2.005a3.433 3.433 0 0 0-2.212-.79z"></path><path fill="#FF9800" d="M22.088 18.965a7.404 7.404 0 0 0 1.577-2.709l.015-.053a6.82 6.82 0 0 0 .32-2.087 7.104 7.104 0 0 0-1.088-3.768 7.85 7.85 0 0 0-1.832-2.027l-.018-.013h.002l-7.518-5.772c-.492-.378-1.319-.376-1.86.002-.547.382-.609 1.015-.123 1.415l-.001.001 3.126 2.543-9.543.01c-.788.001-1.545.518-1.695 1.172-.154.665.38 1.217 1.2 1.22v.002l4.83-.01-8.654 6.642c-.813.622-1.075 1.658-.563 2.313.52.667 1.625.668 2.447.004l4.704-3.849s-.069.52-.063.831l-.002-.001c.006.314.106.922.256 1.398a7.385 7.385 0 0 0 1.598 2.762 8.244 8.244 0 0 0 2.73 1.975l.052.021a8.81 8.81 0 0 0 3.609.76h.069c1.3 0 2.534-.279 3.649-.777a8.36 8.36 0 0 0 2.77-1.998l.006-.007zm-1.617-4.011a4.56 4.56 0 0 1-1.031 1.617l-.002.001c-.97.988-2.326 1.548-3.795 1.55-1.47.004-2.827-.552-3.797-1.538a4.53 4.53 0 0 1-1.026-1.591l-.01-.031a4.198 4.198 0 0 1-.252-1.448c0-.752.195-1.458.535-2.073a4.721 4.721 0 0 1 1.143-1.362l.009-.007c.942-.768 2.141-1.183 3.396-1.185s2.455.41 3.398 1.175c.48.391.87.854 1.152 1.367.279.492.465 1.072.521 1.689l.001.016a4.188 4.188 0 0 1-.242 1.82z"></path><path d="M19.359 20.698c-.015.007-.031.011-.047.018a.04.04 0 0 0-.009.005l.056-.023z"></path></svg>