<svg version="1.1" id="Layer_1" xmlns="http://www.w3.org/2000/svg" xmlns:xlink="http://www.w3.org/1999/xlink" x="0px" y="0px"
	 width="100%" viewBox="0 0 243 241" enable-background="new 0 0 243 241" xml:space="preserve">
<path fill="#3F4F75" opacity="1.000000" stroke="none" 
	d="
M138.000000,242.000000 
	C92.000000,242.000000 46.500004,242.000000 1.000006,242.000000 
	C1.000004,161.666672 1.000004,81.333351 1.000002,1.000017 
	C81.999992,1.000011 162.999985,1.000011 243.999969,1.000006 
	C243.999985,81.333321 243.999985,161.666641 244.000000,241.999969 
	C208.833328,242.000000 173.666672,242.000000 138.000000,242.000000 
M109.809601,190.823059 
	C109.823158,159.530899 109.844467,128.238754 109.844917,96.946594 
	C109.845032,88.948708 105.290192,83.682922 98.301865,83.506157 
	C91.091988,83.323784 86.182037,88.641853 86.168930,96.956856 
	C86.121170,127.250465 86.127739,157.544235 86.166298,187.837875 
	C86.175537,195.093826 89.904190,200.002838 95.893143,200.994446 
	C102.393448,202.070724 107.195107,198.826218 109.809601,190.823059 
M179.832321,177.496582 
	C179.832443,181.160614 179.808319,184.824860 179.837738,188.488647 
	C179.899414,196.166931 184.532333,201.187271 191.492004,201.154892 
	C198.501602,201.122284 203.136383,196.177673 203.148026,188.405365 
	C203.193939,157.760529 203.183884,127.115540 203.126770,96.470734 
	C203.123138,94.520401 202.876419,92.440208 202.169769,90.646118 
	C200.109421,85.415115 194.864929,82.783485 189.195679,83.820145 
	C183.440582,84.872498 179.861603,89.226967 179.851486,95.555298 
	C179.808380,122.536072 179.832657,149.516953 179.832321,177.496582 
M154.755493,135.962875 
	C150.399780,130.855286 145.465683,129.264404 140.276596,131.294571 
	C135.544449,133.145950 133.002579,137.449478 132.995956,143.751297 
	C132.980423,158.559952 132.980072,173.368652 133.007889,188.177277 
	C133.010681,189.661484 133.028229,191.205688 133.415817,192.618668 
	C135.003082,198.405197 140.322342,201.784454 146.413406,201.031998 
	C152.237457,200.312546 156.407150,195.744553 156.464859,189.318726 
	C156.605270,173.679413 156.559052,158.037628 156.449310,142.397812 
	C156.435852,140.478195 155.576950,138.564484 154.755493,135.962875 
M39.479687,182.395676 
	C39.576874,185.214584 39.457859,188.061234 39.815075,190.846802 
	C40.624249,197.156662 45.588768,201.328110 51.759190,201.152908 
	C57.944046,200.977295 62.979961,196.464279 63.059875,190.144806 
	C63.265793,173.861038 63.304668,157.569351 63.015862,141.287842 
	C62.891727,134.289886 56.482063,129.638138 49.538868,130.690628 
	C43.176437,131.655075 39.601105,136.195267 39.518723,144.027679 
	C39.387619,156.491409 39.481197,168.957520 39.479687,182.395676 
M109.725723,54.879292 
	C110.200790,47.447006 106.758842,41.195869 101.534317,40.002365 
	C96.263161,38.798206 90.563568,41.587223 88.350304,46.453773 
	C85.368469,53.010281 87.734512,60.664181 93.525589,63.195232 
	C99.525650,65.817627 106.661987,62.453037 109.725723,54.879292 
M191.338989,63.868237 
	C194.557465,62.437218 198.576813,61.764309 200.812241,59.402748 
	C204.433990,55.576660 203.711548,50.510117 201.632721,45.796711 
	C198.548416,38.803574 192.403732,40.157021 186.734680,40.342007 
	C182.008286,40.496227 182.450821,45.064365 181.279526,47.715157 
	C177.955902,55.236870 182.484436,62.701851 191.338989,63.868237 
M39.710598,47.296669 
	C35.404831,54.855968 35.539639,58.842930 41.470318,61.459362 
	C45.110023,63.065094 49.940266,63.623112 53.787273,62.726578 
	C59.765686,61.333324 63.361275,52.458111 60.221962,48.265850 
	C54.564831,40.711269 45.618706,38.125195 39.710598,47.296669 
M157.042862,54.554585 
	C156.408340,51.972401 156.563477,48.695236 155.005875,46.925484 
	C147.284653,38.152615 138.311371,40.003834 133.907303,50.929707 
	C131.935318,55.821911 132.813934,58.645088 137.196030,61.497131 
	C144.698486,66.380028 151.976593,64.069366 157.042862,54.554585 
M139.817078,106.041672 
	C141.440170,106.357086 143.052658,106.862465 144.688263,106.953773 
	C150.556900,107.281349 154.429565,104.489502 156.817734,98.562035 
	C158.879395,93.444977 155.944290,90.456276 152.408463,87.609581 
	C146.434738,82.800125 140.367172,83.948990 135.590302,90.857071 
	C130.854889,97.705170 131.696152,101.309509 139.817078,106.041672 
M51.878651,106.824951 
	C58.584194,104.390823 62.868172,97.429039 60.747784,92.411957 
	C58.727364,87.631416 51.291630,83.850395 46.233246,85.031418 
	C42.223698,85.967552 36.290131,94.229927 36.584999,98.466400 
	C36.884819,102.773949 42.197254,106.557304 48.577370,106.977829 
	C49.400192,107.032059 50.231834,106.952530 51.878651,106.824951 
z"/>
<path fill="#FBFBFC" opacity="1.000000" stroke="none" 
	d="
M109.750710,191.246826 
	C107.195107,198.826218 102.393448,202.070724 95.893143,200.994446 
	C89.904190,200.002838 86.175537,195.093826 86.166298,187.837875 
	C86.127739,157.544235 86.121170,127.250465 86.168930,96.956856 
	C86.182037,88.641853 91.091988,83.323784 98.301865,83.506157 
	C105.290192,83.682922 109.845032,88.948708 109.844917,96.946594 
	C109.844467,128.238754 109.823158,159.530899 109.750710,191.246826 
z"/>
<path fill="#FEFEFF" opacity="1.000000" stroke="none" 
	d="
M179.832321,176.997192 
	C179.832657,149.516953 179.808380,122.536072 179.851486,95.555298 
	C179.861603,89.226967 183.440582,84.872498 189.195679,83.820145 
	C194.864929,82.783485 200.109421,85.415115 202.169769,90.646118 
	C202.876419,92.440208 203.123138,94.520401 203.126770,96.470734 
	C203.183884,127.115540 203.193939,157.760529 203.148026,188.405365 
	C203.136383,196.177673 198.501602,201.122284 191.492004,201.154892 
	C184.532333,201.187271 179.899414,196.166931 179.837738,188.488647 
	C179.808319,184.824860 179.832443,181.160614 179.832321,176.997192 
z"/>
<path fill="#FBFBFC" opacity="1.000000" stroke="none" 
	d="
M154.932648,136.305450 
	C155.576950,138.564484 156.435852,140.478195 156.449310,142.397812 
	C156.559052,158.037628 156.605270,173.679413 156.464859,189.318726 
	C156.407150,195.744553 152.237457,200.312546 146.413406,201.031998 
	C140.322342,201.784454 135.003082,198.405197 133.415817,192.618668 
	C133.028229,191.205688 133.010681,189.661484 133.007889,188.177277 
	C132.980072,173.368652 132.980423,158.559952 132.995956,143.751297 
	C133.002579,137.449478 135.544449,133.145950 140.276596,131.294571 
	C145.465683,129.264404 150.399780,130.855286 154.932648,136.305450 
z"/>
<path fill="#FBFBFC" opacity="1.000000" stroke="none" 
	d="
M39.479721,181.909149 
	C39.481197,168.957520 39.387619,156.491409 39.518723,144.027679 
	C39.601105,136.195267 43.176437,131.655075 49.538868,130.690628 
	C56.482063,129.638138 62.891727,134.289886 63.015862,141.287842 
	C63.304668,157.569351 63.265793,173.861038 63.059875,190.144806 
	C62.979961,196.464279 57.944046,200.977295 51.759190,201.152908 
	C45.588768,201.328110 40.624249,197.156662 39.815075,190.846802 
	C39.457859,188.061234 39.576874,185.214584 39.479721,181.909149 
z"/>
<path fill="#7ECCBC" opacity="1.000000" stroke="none" 
	d="
M109.623405,55.266541 
	C106.661987,62.453037 99.525650,65.817627 93.525589,63.195232 
	C87.734512,60.664181 85.368469,53.010281 88.350304,46.453773 
	C90.563568,41.587223 96.263161,38.798206 101.534317,40.002365 
	C106.758842,41.195869 110.200790,47.447006 109.623405,55.266541 
z"/>
<path fill="#7ECCBC" opacity="1.000000" stroke="none" 
	d="
M190.934647,63.913570 
	C182.484436,62.701851 177.955902,55.236870 181.279526,47.715157 
	C182.450821,45.064365 182.008286,40.496227 186.734680,40.342007 
	C192.403732,40.157021 198.548416,38.803574 201.632721,45.796711 
	C203.711548,50.510117 204.433990,55.576660 200.812241,59.402748 
	C198.576813,61.764309 194.557465,62.437218 190.934647,63.913570 
z"/>
<path fill="#7ECCBC" opacity="1.000000" stroke="none" 
	d="
M39.931091,47.004185 
	C45.618706,38.125195 54.564831,40.711269 60.221962,48.265850 
	C63.361275,52.458111 59.765686,61.333324 53.787273,62.726578 
	C49.940266,63.623112 45.110023,63.065094 41.470318,61.459362 
	C35.539639,58.842930 35.404831,54.855968 39.931091,47.004185 
z"/>
<path fill="#7ECBBC" opacity="1.000000" stroke="none" 
	d="
M156.935913,54.909309 
	C151.976593,64.069366 144.698486,66.380028 137.196030,61.497131 
	C132.813934,58.645088 131.935318,55.821911 133.907303,50.929707 
	C138.311371,40.003834 147.284653,38.152615 155.005875,46.925484 
	C156.563477,48.695236 156.408340,51.972401 156.935913,54.909309 
z"/>
<path fill="#7FCCBD" opacity="1.000000" stroke="none" 
	d="
M139.445755,105.913177 
	C131.696152,101.309509 130.854889,97.705170 135.590302,90.857071 
	C140.367172,83.948990 146.434738,82.800125 152.408463,87.609581 
	C155.944290,90.456276 158.879395,93.444977 156.817734,98.562035 
	C154.429565,104.489502 150.556900,107.281349 144.688263,106.953773 
	C143.052658,106.862465 141.440170,106.357086 139.445755,105.913177 
z"/>
<path fill="#7FCCBC" opacity="1.000000" stroke="none" 
	d="
M51.469021,106.879959 
	C50.231834,106.952530 49.400192,107.032059 48.577370,106.977829 
	C42.197254,106.557304 36.884819,102.773949 36.584999,98.466400 
	C36.290131,94.229927 42.223698,85.967552 46.233246,85.031418 
	C51.291630,83.850395 58.727364,87.631416 60.747784,92.411957 
	C62.868172,97.429039 58.584194,104.390823 51.469021,106.879959 
z"/>
</svg>