<?xml version="1.0" encoding="utf-8"?>
<!-- Uploaded to: SVG Repo, www.svgrepo.com, Generator: SVG Repo Mixer Tools -->
<svg fill="#000000" height="800px" width="800px" version="1.2" baseProfile="tiny" id="Layer_1" xmlns="http://www.w3.org/2000/svg" xmlns:xlink="http://www.w3.org/1999/xlink"
	  viewBox="-63 65 128 128" xml:space="preserve">
<path d="M-32.6,131.7l-2.1,2.2l4,3.7l2.1-2.2c0.9,0.5,1.9,0.9,2.8,1l0.1,3l5.4-0.2l-0.1-3c1-0.2,1.9-0.7,2.7-1.2l2.2,2.1l3.7-4
	l-2.2-2.1c0.5-0.9,0.9-1.9,1-2.8l3-0.1l-0.2-5.5l-3,0.1c-0.2-1-0.7-1.9-1.2-2.7l2.1-2.2l-4-3.7l-2.1,2.2c-0.9-0.5-1.9-0.9-2.8-1
	l-0.1-3l-5.4,0.2l0.1,3c-1,0.2-1.9,0.7-2.7,1.2l-2.2-2.1l-3.7,4l2.2,2.1c-0.5,0.9-0.9,1.9-1,2.8l-3,0.1l0.2,5.4l3-0.1
	C-33.6,130-33.2,130.9-32.6,131.7z M-23.7,118.6c4.1-0.1,7.4,3,7.5,7.1s-3,7.4-7.1,7.5s-7.4-3-7.5-7.1
	C-30.9,122.1-27.7,118.7-23.7,118.6z M-22.2,149.3l-0.1-3.7l-2.9,0.1c-0.1-0.2-0.1-0.4-0.2-0.5l2.1-2.1l-2.7-2.6l-2,2.1
	c-0.2-0.1-0.4-0.2-0.6-0.2l-0.1-2.9l-3.7,0.1l0.1,2.9c-0.1,0-0.2,0.1-0.4,0.2c-0.1,0-0.2,0.1-0.2,0.1l-2.1-2l-2.6,2.7l2.1,2
	c-0.1,0.2-0.2,0.4-0.2,0.6l-2.9,0.1l0.1,3.7l2.9-0.1c0.1,0.2,0.2,0.4,0.2,0.5l-2.1,2.2l2.7,2.6l2.1-2.2c0.2,0.1,0.3,0.1,0.5,0.2
	l0.1,3l3.7-0.1l-0.1-3c0.1,0,0.2-0.1,0.3-0.1c0.1,0,0.1,0,0.2-0.1l2.2,2.1l2.6-2.7l-2.2-2.1c0.1-0.2,0.2-0.3,0.2-0.5L-22.2,149.3z
	 M-28.3,148.9c-0.6,1.1-2,1.6-3.1,1c-1.1-0.6-1.6-2-1-3.1c0.6-1.1,2-1.6,3.1-1C-28.2,146.4-27.8,147.8-28.3,148.9z M-37.4,140.8
	l-3.6-3.3c0.1-0.3,0.3-0.6,0.4-0.9l4.9-0.1l-0.2-6.1l-4.9,0.1c-0.1-0.3-0.2-0.6-0.4-0.9l3.3-3.6l-4.4-4.2l-3.3,3.6
	c-0.2-0.1-0.4-0.2-0.6-0.2c-0.1,0-0.2-0.1-0.4-0.2l-0.1-4.8l-6.1,0.2l0.1,4.8c-0.3,0.1-0.6,0.2-0.9,0.4l-3.5-3.3l-4.2,4.4l3.6,3.3
	c-0.1,0.3-0.3,0.6-0.4,0.9L-63,131l0.2,6.1l5-0.2c0.1,0.3,0.2,0.5,0.4,0.8l-3.4,3.7l4.4,4.2l3.4-3.7c0.2,0.1,0.3,0.1,0.4,0.2
	c0.1,0,0.2,0.1,0.3,0.1l0.2,5.1l6.1-0.2l-0.2-5c0.3-0.1,0.5-0.2,0.8-0.3l3.7,3.4L-37.4,140.8z M-47.7,139.3c-3,0.9-6.3-0.8-7.2-3.8
	c-0.9-3,0.8-6.3,3.8-7.2c3-0.9,6.3,0.8,7.2,3.8C-42.9,135.1-44.6,138.3-47.7,139.3z M25.8,96.7c8.6,0,15.6,7,15.6,15.6
	s-7,15.6-15.6,15.6s-15.6-7-15.6-15.6S17.2,96.7,25.8,96.7z M45.4,131.9H9.9c-5.1,0-10.2,0.7-13.9,5.7c-1.6,2.5-16.4,21.1-16.4,21.1
	h-20.8c-3.7,0-6.8,3.1-6.8,6.8s3.1,6.8,6.8,6.8h23.7c1.7,0,3.5-0.7,4.7-2l13.9-16.9c0.4-0.4,0.7-0.6,1.4-0.6c1.1,0,2,0.7,2,2v30.6
	h43v-30.1c0-1.1,0.7-2,2-2c1.1,0,2,0.7,2,2v30.2H65v-34.1C65,140.7,56.2,131.9,45.4,131.9z"/>
</svg>