<?xml version="1.0" encoding="utf-8"?>
<!-- Uploaded to: SVG Repo, www.svgrepo.com, Generator: SVG Repo Mixer Tools -->
<svg fill="#000000" version="1.1" id="Layer_1" xmlns="http://www.w3.org/2000/svg" xmlns:xlink="http://www.w3.org/1999/xlink" 
	 width="800px" height="800px" viewBox="0 0 230 256" enable-background="new 0 0 230 256" xml:space="preserve">
<path d="M227.992,157.488V254H2.008v-32.017h72.817v-32.385h68.48v-32.109H227.992z M109.617,20.946
	c0,10.464,8.482,18.946,18.946,18.946s18.946-8.482,18.946-18.946S139.027,2,128.563,2S109.617,10.482,109.617,20.946z
	 M173.159,82.942h-31.421c0,0-21.195-36.586-21.598-37.096c-2.574-4.119-8.238-7.723-12.769-8.753
	c-8.238-1.03-15.343,2.574-19.977,9.268c0,0-25.631,47.532-32.453,60.179c-1.096,2.032-1.855,4.218-2.256,6.491l-8.935,50.633
	l-25.452,36.408c-3.881,5.364-2.625,12.669,2.739,16.435c5.478,3.766,12.783,2.625,16.549-2.853l26.935-38.919
	c0.913-1.37,1.598-3.082,1.94-4.68l7.989-39.585l31.006,0.799l-1.255,44.388c-0.114,5.935,4.565,10.957,10.614,11.071
	c0.114,0,0.228,0,0.228,0c5.821,0,10.729-4.679,10.843-10.614l1.484-55.116c0.114-5.935-4.565-10.957-10.5-11.071l-18.218-0.328
	l19.711-36.852l12.563,21.771c1.274,2.208,3.63,3.568,6.179,3.568h36.052c4.182,0,7.572-3.39,7.572-7.572v0
	C180.73,86.332,177.34,82.942,173.159,82.942z"/>
</svg>