<?xml version="1.0" encoding="iso-8859-1"?>
<!-- Uploaded to: SVG Repo, www.svgrepo.com, Generator: SVG Repo Mixer Tools -->
<svg fill="#000000" height="800px" width="800px" version="1.1" id="Layer_1" xmlns="http://www.w3.org/2000/svg" xmlns:xlink="http://www.w3.org/1999/xlink" 
	 viewBox="0 0 491.52 491.52" xml:space="preserve">
<g>
	<g>
		<path d="M399.36,283.375v-54.75l-35.845-5.975c-2.59-9.15-6.25-17.955-10.93-26.305l21.145-29.6l-38.715-38.715l-29.6,21.145
			c-8.35-4.685-17.16-8.34-26.305-10.93l-5.975-35.845h-54.75l-5.975,35.845c-9.145,2.59-17.955,6.245-26.305,10.93l-29.6-21.145
			l-38.715,38.715l21.145,29.6c-4.68,8.35-8.34,17.155-10.93,26.305l-35.845,5.975v54.75l35.845,5.975
			c2.59,9.15,6.25,17.955,10.93,26.305l-21.145,29.6l38.715,38.715l29.6-21.145c8.35,4.685,17.16,8.34,26.305,10.93l5.975,35.845
			h54.75l5.975-35.845c9.145-2.59,17.955-6.245,26.305-10.93l29.6,21.145l38.715-38.715l-21.145-29.6
			c4.68-8.35,8.34-17.155,10.93-26.305L399.36,283.375z M346.98,343.045l-14.175,14.175l-26.56-18.97l-5.83,3.715
			c-10.07,6.41-21.01,10.955-32.52,13.51l-6.75,1.495l-5.36,32.15h-20.05l-5.36-32.15l-6.75-1.495
			c-11.51-2.555-22.45-7.1-32.52-13.51l-5.83-3.715l-26.56,18.97l-14.175-14.175l18.975-26.565l-3.715-5.83
			c-6.415-10.06-10.96-21-13.515-32.515l-1.495-6.75l-32.15-5.36v-20.05l32.15-5.36l1.495-6.75
			c2.555-11.515,7.1-22.455,13.515-32.515l3.715-5.83l-18.975-26.565l14.175-14.175l26.56,18.97l5.83-3.715
			c10.07-6.41,21.01-10.955,32.52-13.51l6.75-1.495l5.36-32.15h20.05l5.36,32.15l6.75,1.495c11.51,2.555,22.45,7.1,32.52,13.51
			l5.83,3.715l26.56-18.97l14.175,14.175l-18.975,26.565l3.715,5.83c6.415,10.06,10.96,21,13.515,32.515l1.495,6.75l32.15,5.36
			v20.05l-32.15,5.36l-1.495,6.75c-2.555,11.515-7.1,22.455-13.515,32.515l-3.715,5.83L346.98,343.045z"/>
	</g>
</g>
<g>
	<g>
		<path d="M245.76,201.65c-29.97,0-54.35,24.38-54.35,54.35c0,29.97,24.38,54.35,54.35,54.35c29.97,0,54.35-24.38,54.35-54.35
			C300.11,226.03,275.73,201.65,245.76,201.65z M245.76,289.87c-18.675,0-33.87-15.195-33.87-33.87s15.195-33.87,33.87-33.87
			s33.87,15.195,33.87,33.87S264.435,289.87,245.76,289.87z"/>
	</g>
</g>
<g>
	<g>
		<path d="M491.52,71.68V10.24h-61.44v20.48h-153.6V10.24h-61.44v20.48H61.44V10.24H0v61.44h61.44V51.2h90.6
			C83.325,82.673,33.393,147.621,22.784,225.28H0v61.44h22.59c0.063,0.461,0.099,0.931,0.165,1.39l9.649-1.39H61.44v-61.44H43.442
			C56.769,136.75,126.506,67.008,215.04,53.678V71.68h61.44V53.678c88.534,13.33,158.271,83.072,171.598,171.602H430.08v61.44
			h29.041l9.644,1.375c0.065-0.454,0.101-0.919,0.163-1.375h22.592v-61.44h-22.784C458.128,147.621,408.195,82.673,339.48,51.2h90.6
			v20.48H491.52z M450.56,30.72h20.48V51.2h-20.48V30.72z M40.96,51.2H20.48V30.72h20.48V51.2z M40.96,266.24H20.48v-20.48h20.48
			V266.24z M256,51.2h-20.48V30.72H256V51.2z M450.56,245.76h20.48v20.48h-20.48V245.76z"/>
	</g>
</g>
<g>
	<g>
		<path d="M69.855,360.95l-17.58,10.51c3.77,6.31,7.91,12.51,12.295,18.44l16.46-12.19C77.04,372.325,73.28,366.685,69.855,360.95z"
			/>
	</g>
</g>
<g>
	<g>
		<path d="M140.335,431.615l-10.56,17.55c6.295,3.79,12.87,7.315,19.54,10.48l8.78-18.5
			C152.035,438.265,146.06,435.06,140.335,431.615z"/>
	</g>
</g>
<g>
	<g>
		<path d="M421.785,360.75c-3.42,5.73-7.175,11.375-11.16,16.775l16.47,12.17c4.39-5.94,8.52-12.15,12.28-18.465L421.785,360.75z"/>
	</g>
</g>
<g>
	<g>
		<path d="M351.38,431.5c-5.715,3.45-11.68,6.66-17.73,9.54l8.8,18.49c6.655-3.165,13.225-6.7,19.52-10.5L351.38,431.5z"/>
	</g>
</g>
<g>
	<g>
		<path d="M100.745,400.615l-14.5,14.46c5.185,5.205,10.705,10.22,16.395,14.91l13.02-15.81
			C110.485,409.91,105.465,405.35,100.745,400.615z"/>
	</g>
</g>
<g>
	<g>
		<path d="M49.575,314.98l-19.62,5.89c2.12,7.06,4.62,14.09,7.425,20.89l18.93-7.8C53.765,327.78,51.5,321.395,49.575,314.98z"/>
	</g>
</g>
<g>
	<g>
		<path d="M255.98,460.55c-3.29,0.165-6.6,0.25-9.95,0.25c-3.45-0.005-6.835-0.08-10.215-0.24l-0.98,20.46
			c3.715,0.17,7.335,0.21,11.21,0.26c3.67,0,7.32-0.095,10.945-0.27L255.98,460.55z"/>
	</g>
</g>
<g>
	<g>
		<path d="M390.935,400.455c-4.715,4.74-9.725,9.31-14.9,13.58l13.04,15.79c5.685-4.69,11.195-9.715,16.38-14.92L390.935,400.455z"
			/>
	</g>
</g>
<g>
	<g>
		<path d="M442.02,314.725c-1.915,6.4-4.175,12.795-6.72,19l18.95,7.77c2.8-6.825,5.29-13.865,7.39-20.91L442.02,314.725z"/>
	</g>
</g>
<g>
	<g>
		<path d="M186.27,452.03l-5.93,19.6c7.055,2.135,14.29,3.94,21.515,5.37l3.97-20.09C199.26,455.61,192.68,453.97,186.27,452.03z"/>
	</g>
</g>
<g>
	<g>
		<path d="M305.505,451.955c-6.42,1.95-12.99,3.6-19.53,4.9l3.99,20.09c7.205-1.435,14.44-3.25,21.5-5.4L305.505,451.955z"/>
	</g>
</g>
</svg>